<?xml version="1.0" encoding="UTF-8"?>
<svg width="1287" height="1024" viewBox="0 0 1287 1024" fill="none" xmlns="http://www.w3.org/2000/svg">
<g opacity="0.8">
<g opacity="0.6" filter="url(#filter0_f_9_45)">
<path d="M730.491 1009.98C650.249 975.703 589.632 903.198 583.108 819.39C577.185 803.497 576.187 784.8 577.526 768.035C579.958 737.582 615.345 725.251 635.745 704.125C647.65 691.797 648.463 674.703 659.033 661.614C670.521 647.388 684.358 627.328 705.608 624.81C766.56 617.585 828.026 633.324 886.168 648.49C965.472 669.177 1040.24 699.971 1115.54 729.518C1133.13 736.422 1148.31 745.771 1164.66 754.625C1173.58 759.454 1184.25 760.903 1192.9 765.895C1212.36 777.124 1227.95 805.625 1228.94 825.667C1229.76 842.172 1221.47 860.957 1210.28 873.884C1197.52 888.638 1173.54 881.657 1155.73 881.159C1135.05 880.582 1127.12 888.83 1112.35 901.844C1098.57 913.979 1070.03 931.554 1062.58 948.207C1056.15 962.576 1048.1 976.133 1039.77 989.719C1030.05 1005.59 1027.28 1010.95 1007.07 1013.11C911.927 1023.29 822.562 1049.3 730.491 1009.98Z" fill="url(#paint0_radial_9_45)"/>
</g>
<g opacity="0.6" filter="url(#filter1_f_9_45)">
<path d="M431.689 183.541C458.201 127.582 529.412 76.1 620.528 55.5435C637.158 48.7726 657.549 44.4668 676.143 41.9754C709.916 37.45 728.359 56.7062 754.382 65.0377C769.568 69.8998 788.449 67.0211 804.285 70.9144C821.498 75.1462 845.44 79.6652 851.151 92.1938C867.529 128.13 858.766 168.917 850.17 207.554C838.445 260.254 814.994 312.173 792.986 364.164C787.843 376.313 779.681 387.463 772.226 399.239C768.16 405.661 768.046 412.483 763.764 418.772C754.131 432.92 724.998 448.108 703.13 452.678C685.121 456.442 663.345 455.066 647.602 450.764C629.634 445.855 633.975 429.776 632.054 418.762C629.823 405.972 619.668 402.741 603.331 396.254C588.098 390.205 564.846 376.183 545.529 374.907C528.861 373.806 512.859 371.545 496.788 369.126C478.018 366.302 471.742 365.665 466.569 353.704C442.213 297.39 401.268 247.75 431.689 183.541Z" fill="url(#paint1_radial_9_45)"/>
</g>
<g opacity="0.35" filter="url(#filter2_f_9_45)">
<path d="M1113.23 482.208C1111.28 486.504 1105.38 498.849 1096.94 503.712C1105.51 506.981 1109.75 509.062 1107.19 519.516C1105.15 527.836 1088.5 546.661 1079.16 555.734C1065.67 568.839 1061.55 571.613 1055.24 583.732C1046.38 600.741 1203.5 519.516 1218.65 728.333C1181.8 751.366 1143.99 773.775 1107.19 796.878C1113.23 844.964 1079.16 903.083 970.857 880.138C782.642 927.171 657.754 824.897 614.638 827.813C607.646 828.286 605.053 826.978 597.911 832.209C591.43 836.957 584.629 841.006 576.958 844.964C555.13 856.225 532.359 859.465 512.453 863.369L509.488 863.951C480.32 869.674 450.492 875.527 422.912 878.903C376.064 884.637 357.915 870.734 363.915 842.068C365.407 834.944 364.969 837.309 354.513 839.998C343.85 842.739 335.848 841.884 328.471 840.905C299.665 837.083 264.739 833.216 248.031 820.511C241.492 815.538 250.395 806.112 257.471 796.878C265.614 786.251 274.29 775.358 280.053 765.092C301.94 726.101 285.866 699.869 252.67 685.978C216.009 670.637 195.47 643.648 184.847 613.54C172.31 578.005 184.88 526.137 261.811 473.557C279.244 461.642 292.46 453.701 301.105 460.893C316.007 473.291 320.937 491.201 335.412 503.83C352.376 518.63 386.848 530.005 429.912 523.263C482.477 515.034 508.076 479.762 512.408 456.22C516.327 434.921 504.523 424.733 490.351 412.503L490.151 412.33C485.599 408.402 476.539 403.21 478.396 395.971C480.372 388.265 526.893 353.266 539.449 352.918C546.791 352.715 548.864 357.782 556.605 357.624C561.09 357.533 568.494 353.411 573.411 351.128C609.975 334.155 615.419 313.306 621.022 295.333C633.731 254.559 636.303 208.985 692.024 160.141C723.467 132.579 762.145 123.915 782.642 134.499C810.314 148.788 815.815 177.192 819.31 203.732C820.703 214.309 820.239 226.983 819 238.786C818.8 240.689 814.534 248.383 821.438 245.88C826.473 244.055 838.227 238.931 842.071 237.294L843.274 236.782C858.832 230.159 874.459 223.507 890.07 217.852C906.926 211.746 925.561 205.831 938.301 206.984C959.254 208.881 972.173 219.633 982.707 228.636C1002.72 245.744 1008.47 268.928 998.637 299.187C995.867 307.713 992.04 314.54 987.464 323.256C986.842 324.441 984.253 328.335 984.731 329.7C985.76 332.631 1023.73 314.194 1026.66 313.103C1050.5 304.222 1062.07 308.804 1071.22 315.227C1091.47 329.457 1099.55 351.029 1108.19 371.377C1121.2 402.055 1132.96 438.893 1113.23 482.208Z" fill="url(#paint2_radial_9_45)"/>
</g>
</g>
<defs>
<filter id="filter0_f_9_45" x="377" y="423" width="1052" height="808" filterUnits="userSpaceOnUse" color-interpolation-filters="sRGB">
<feFlood flood-opacity="0" result="BackgroundImageFix"/>
<feBlend mode="normal" in="SourceGraphic" in2="BackgroundImageFix" result="shape"/>
<feGaussianBlur stdDeviation="100" result="effect1_foregroundBlur_9_45"/>
</filter>
<filter id="filter1_f_9_45" x="220.879" y="-158.704" width="839.482" height="813.573" filterUnits="userSpaceOnUse" color-interpolation-filters="sRGB">
<feFlood flood-opacity="0" result="BackgroundImageFix"/>
<feBlend mode="normal" in="SourceGraphic" in2="BackgroundImageFix" result="shape"/>
<feGaussianBlur stdDeviation="100" result="effect1_foregroundBlur_9_45"/>
</filter>
<filter id="filter2_f_9_45" x="0.632324" y="-49.873" width="1398.02" height="1122.4" filterUnits="userSpaceOnUse" color-interpolation-filters="sRGB">
<feFlood flood-opacity="0" result="BackgroundImageFix"/>
<feBlend mode="normal" in="SourceGraphic" in2="BackgroundImageFix" result="shape"/>
<feGaussianBlur stdDeviation="90" result="effect1_foregroundBlur_9_45"/>
</filter>
<radialGradient id="paint0_radial_9_45" cx="0" cy="0" r="1" gradientUnits="userSpaceOnUse" gradientTransform="translate(903 827) rotate(90) scale(204 326)">
<stop stop-color="#16EC5D"/>
<stop offset="1" stop-color="#0C8635" stop-opacity="0.1"/>
</radialGradient>
<radialGradient id="paint1_radial_9_45" cx="0" cy="0" r="1" gradientUnits="userSpaceOnUse" gradientTransform="translate(656.5 253.139) rotate(169.8) scale(227.587 204.678)">
<stop stop-color="#85E0A4"/>
<stop offset="1" stop-color="#16EC5D" stop-opacity="0.2"/>
</radialGradient>
<radialGradient id="paint2_radial_9_45" cx="0" cy="0" r="1" gradientUnits="userSpaceOnUse" gradientTransform="translate(630.172 517.933) rotate(152.711) scale(488.016 293.601)">
<stop stop-color="#85E0A4"/>
<stop offset="1" stop-color="#189642" stop-opacity="0.7"/>
</radialGradient>
</defs>
</svg>
