<svg width="1440" height="1024" viewBox="0 0 1440 1024" fill="none" xmlns="http://www.w3.org/2000/svg">
<g opacity="0.4" filter="url(#filter0_f_9_39)">
<path d="M532.482 289.622C460.941 280.832 316.002 226.709 268.228 166.758C242.278 118.928 226.538 51.9396 285.341 18.9539C299.059 11.2587 317.089 10.405 332.302 6.85085C362.148 -0.122413 391.729 -11.8319 422.642 -14.0544C514.011 -20.6235 607.662 7.78199 686.896 47.9279C723.328 66.3872 754.749 86.9 765.695 125.681C773.343 152.777 769.877 182.882 762.511 209.669C751.273 250.535 729.495 272.866 684.11 284.121C633.973 296.554 583.414 295.881 532.482 289.622Z" fill="#16EC5D"/>
<path d="M1290.59 679.558C1322.32 698.524 1359.05 715.145 1395.02 716.056C1397.72 722.731 1402.52 724.569 1407.73 721.677C1412.81 718.857 1416.25 714.92 1420.93 711.351C1424.13 708.919 1428.13 709.085 1431.5 707.003C1437.91 703.046 1443.75 698.939 1450.7 696.496C1465.16 691.415 1473.89 682.694 1476.69 661.442C1479.27 641.789 1477.44 619.914 1476.33 600.3C1474.52 568.35 1471.44 536.461 1466.62 505.01C1460.95 467.989 1450.84 433.361 1439.07 398.851C1428.34 367.408 1414.01 341.181 1398.66 313.343C1393.85 304.606 1389.16 295.832 1385.31 286.35C1380.48 274.431 1363.62 250.762 1351.41 259.539C1338.47 268.835 1328.16 280.113 1312.43 281.097C1297.23 282.049 1283.79 274.058 1272.6 261.532C1248.78 234.865 1245.96 194.236 1226.77 163.796C1214.65 144.575 1185.9 148.384 1168.81 151.749C1164.48 152.6 1162.43 154.242 1162.67 159.72C1164.03 190.774 1160.22 223.259 1150.39 251.84C1146.96 261.807 1140.51 278.708 1130.26 280.735C1125.02 281.771 1118.08 277.258 1113.55 274.666C1100.58 267.238 1088.2 257.977 1075.65 249.484C1060.21 239.034 1048.07 224.563 1033.96 211.803C1021.91 200.911 1006.31 193.465 992.058 189.068C983.754 186.505 970.669 182.059 962.577 188.524C955.842 193.905 953.988 208.808 953.368 217.691C949.452 273.773 977.586 331.631 999.696 376.568C1029.59 437.322 1065.45 487.967 1109.56 532.909C1164.95 589.343 1226.22 641.091 1290.59 679.558Z" fill="#189642"/>
<path d="M113.283 685.694C62.9451 688.309 8.94131 694.057 -34.491 720.688C-34.491 729.228 -51.386 747.791 -34.4912 774.156C-32.4696 793.524 -13.9794 823.774 -2.98632 840.529C24.1563 881.899 72.707 868.778 115.879 897.434C145.781 917.282 176.922 939.135 211.922 949.658C308.234 978.613 410.44 1000.59 511.549 1004.55C535.548 1005.49 561.955 1006.83 585.714 1002.06C591.576 1000.88 598.074 998.407 601.845 993.711C614.519 977.926 624.715 960.255 638.278 944.862C650.14 931.4 669.595 927.719 685.28 919.727C702.94 910.729 722.935 898.975 731.263 880.381C739.618 861.726 722.84 839.938 712.721 825.67C697.192 803.772 678.893 783.558 658.396 765.807C634.809 745.381 606.784 725.857 574.682 720.688C535.91 714.445 493.863 722.46 455.925 729.836C412.429 738.293 353.074 765.392 312.045 737.03C285.704 718.822 268.338 697.894 234.728 690.668C195.596 682.254 152.969 683.632 113.283 685.694Z" fill="#85E0A4"/>
</g>
<defs>
<filter id="filter0_f_9_39" x="-242" y="-215" width="1920" height="1420.47" filterUnits="userSpaceOnUse" color-interpolation-filters="sRGB">
<feFlood flood-opacity="0" result="BackgroundImageFix"/>
<feBlend mode="normal" in="SourceGraphic" in2="BackgroundImageFix" result="shape"/>
<feGaussianBlur stdDeviation="100" result="effect1_foregroundBlur_9_39"/>
</filter>
</defs>
</svg>
